<svg width="24" height="24" viewBox="0 0 24 24" fill="none" xmlns="http://www.w3.org/2000/svg">
<path d="M8 14C11.3137 14 14 11.3137 14 8C14 4.68629 11.3137 2 8 2C4.68629 2 2 4.68629 2 8C2 11.3137 4.68629 14 8 14Z" stroke="#526077" stroke-width="2" stroke-linecap="round" stroke-linejoin="round"/>
<path d="M18.0898 10.37C19.0352 10.7224 19.8763 11.3075 20.5356 12.0712C21.1949 12.8349 21.6509 13.7524 21.8616 14.7391C22.0723 15.7257 22.0307 16.7495 21.7409 17.7158C21.451 18.6822 20.9222 19.5598 20.2033 20.2676C19.4844 20.9754 18.5986 21.4905 17.6278 21.7652C16.6571 22.04 15.6327 22.0655 14.6495 21.8395C13.6663 21.6134 12.756 21.1431 12.0027 20.472C11.2494 19.8009 10.6775 18.9507 10.3398 18" stroke="#526077" stroke-width="2" stroke-linecap="round" stroke-linejoin="round"/>
<path d="M7 6H8V10" stroke="#526077" stroke-width="2" stroke-linecap="round" stroke-linejoin="round"/>
<path d="M16.7098 13.88L17.4098 14.59L14.5898 17.41" stroke="#526077" stroke-width="2" stroke-linecap="round" stroke-linejoin="round"/>
</svg>
