<svg width="16" height="16" viewBox="0 0 16 16" fill="none" xmlns="http://www.w3.org/2000/svg">
<g clip-path="url(#clip0_192_1317)">
<path d="M16 0H0V16H16V0Z" fill="black"/>
<path d="M10.625 2.9375H5.40625V8.15625H10.625V2.9375Z" fill="white"/>
<path d="M11.3207 5.54845C11.3207 5.0282 11.3391 4.57348 11.7183 3.75671C11.8291 3.52439 12.0699 3.17161 11.7183 2.77249C11.4315 2.48457 11.0984 2.5309 10.8768 2.66129C11.0061 2.43823 11.0529 2.10398 10.766 1.81672C10.3683 1.45467 10.026 1.70552 9.78531 1.80746C8.9807 2.18804 8.51772 2.21584 8 2.21584C7.48162 2.21584 7.02853 2.19731 6.21469 1.80746C5.9832 1.69626 5.63168 1.45467 5.23399 1.81672C4.9471 2.10464 4.99327 2.4389 5.12319 2.66129C4.90094 2.53156 4.56788 2.48457 4.28165 2.77249C3.9209 3.17161 4.17085 3.51513 4.28165 3.75671C4.66087 4.56422 4.67934 5.02886 4.67934 5.54845C4.67934 6.06803 4.66087 6.52341 4.28165 7.34018C4.17085 7.5725 3.93013 7.92529 4.28165 8.3244C4.56854 8.61233 4.9016 8.56599 5.12319 8.4356C4.99393 8.65866 4.9471 8.99291 5.23399 9.28017C5.63168 9.64222 5.97397 9.39137 6.21469 9.28017C7.0193 8.89959 7.48228 8.88105 8 8.88105C8.51772 8.88105 8.97147 8.89959 9.78531 9.28017C10.0168 9.39137 10.3683 9.63296 10.766 9.28017C11.0529 8.98298 11.0067 8.658 10.8768 8.4356C11.0991 8.56533 11.4321 8.61233 11.7183 8.3244C12.0791 7.92529 11.8291 7.58177 11.7183 7.34018C11.3391 6.53267 11.3207 6.06869 11.3207 5.54845ZM10.4323 8.00868L8.53553 6.41155C8.53553 6.41155 8.27634 6.16069 7.98945 6.16069C7.70256 6.16069 7.44337 6.41155 7.44337 6.41155L5.55584 8.00868L5.5466 7.99942L7.13801 6.09583C7.13801 6.09583 7.38797 5.8357 7.38797 5.54778C7.38797 5.25986 7.13801 4.99974 7.13801 4.99974L5.5466 3.09615L5.55584 3.08688L7.4526 4.68402C7.4526 4.68402 7.71179 4.93488 7.99868 4.93488C8.28557 4.93488 8.54476 4.68402 8.54476 4.68402L10.4415 3.08688L10.4508 3.09615L8.85935 4.99974C8.85935 4.99974 8.60939 5.25986 8.60939 5.54778C8.60939 5.8357 8.85935 6.09583 8.85935 6.09583L10.4323 8.00868Z" fill="#CC0000"/>
<path d="M11.7631 10.4813H11.7938L11.8069 11.0688H11.7719C11.715 10.8322 11.4825 10.6041 11.0222 10.5822C10.4788 10.556 10.2419 10.8803 10.2375 11.1828C10.2331 11.5907 10.5531 11.6738 11.0222 11.7922C11.2456 11.8447 12.07 11.9544 12.0041 12.8794C11.9603 13.5238 11.3991 13.835 10.61 13.8088C10.61 13.8088 10.2813 13.7957 9.82531 13.6685C9.7375 13.6466 9.72 13.6728 9.685 13.7341H9.65V13.0982L9.685 13.1025C9.7025 13.1682 9.70688 13.2866 9.82531 13.3875C9.91313 13.4619 10.1103 13.6463 10.5441 13.6507C10.9738 13.655 11.3288 13.4753 11.3769 12.9975C11.39 12.866 11.3769 12.5722 11.0875 12.4363C10.8597 12.331 10.2328 12.261 9.93031 11.9935C9.93031 11.9935 9.57094 11.7435 9.62781 11.2747C9.70656 10.6128 10.2591 10.4463 10.7588 10.4375C10.7588 10.4375 11.2059 10.4332 11.5566 10.5253C11.5566 10.5253 11.6444 10.5472 11.7188 10.521C11.7369 10.5119 11.7544 10.49 11.7631 10.4813ZM8.65531 12.0066C9.46188 12.2082 9.51 12.7913 9.50125 12.9535C9.46625 13.6813 8.84375 13.7688 8.59813 13.7688H6.69125V13.7338C6.83156 13.7163 6.9325 13.6372 6.9325 13.3963L6.94563 10.8844C6.95 10.6125 6.87563 10.5294 6.72656 10.5119L6.72219 10.4769H8.16438C8.4275 10.4769 9.22531 10.4244 9.29094 11.1563C9.34344 11.735 8.70344 11.9803 8.65531 12.0066ZM8.86563 12.9578C8.87875 12.2522 8.36156 12.0635 7.82219 12.0328C7.81344 12.0328 7.81344 12.0066 7.82219 12.0022C7.9975 11.9935 8.69 11.9144 8.66375 11.2525C8.6375 10.6082 8.14656 10.5907 7.96688 10.5907C7.82219 10.5907 7.78719 10.5907 7.72563 10.5907C7.62031 10.595 7.59406 10.6038 7.59406 10.7178C7.59406 10.731 7.57219 11.8838 7.55906 12.6903C7.55031 13.1288 7.55031 13.4707 7.55031 13.4707C7.55031 13.5494 7.54156 13.6328 7.73875 13.6416C7.94469 13.6503 8.20781 13.6591 8.39188 13.6197C8.5675 13.5803 8.85688 13.4575 8.86563 12.9578ZM5.06938 10.4682C5.75313 10.4638 6.66063 10.9372 6.65625 12.1119C6.65188 13.1332 5.91531 13.7644 5.23156 13.7644H3.5V13.7294C3.59656 13.7119 3.70594 13.6507 3.72344 13.5847C3.78031 13.3391 3.76719 11.086 3.73219 10.7135C3.72344 10.5994 3.63125 10.525 3.5175 10.5032V10.4682C3.52219 10.4682 4.91594 10.4725 5.06938 10.4682ZM5.385 13.5541C5.69188 13.4444 6.07312 12.9185 6.01187 12.0944C5.95062 11.2966 5.64813 10.6697 4.83719 10.6085C4.83719 10.6085 4.68375 10.5953 4.55656 10.5953C4.42063 10.5953 4.39 10.591 4.37688 10.7357C4.35938 11.0119 4.355 13.1597 4.3725 13.471C4.37688 13.5147 4.38125 13.6157 4.55656 13.6332C4.87656 13.6638 5.14406 13.6419 5.385 13.5541Z" fill="white"/>
</g>
<defs>
<clipPath id="clip0_192_1317">
<rect width="16" height="16" rx="4" fill="white"/>
</clipPath>
</defs>
</svg>
