<svg width="24" height="24" viewBox="0 0 24 24" fill="none" xmlns="http://www.w3.org/2000/svg">
<path d="M14.0156 7.64052C14.054 7.6488 14.0923 7.65708 14.1319 7.66561C16.2504 8.1268 18.2924 9.5307 19.472 11.3556C19.5097 11.4151 19.5471 11.4748 19.5843 11.5346C19.6219 11.5949 19.66 11.6548 19.6986 11.7144C20.3857 12.776 20.7657 13.9914 20.9531 15.2343C20.9593 15.2751 20.9656 15.316 20.972 15.358C21.0101 15.6483 21 15.9206 21 16.2186C15.06 16.2186 9.12 16.2186 3 16.2186C3 15.7961 3.00383 15.4282 3.07617 15.0204C3.08446 14.9725 3.09274 14.9247 3.10128 14.8754C3.48896 12.7425 4.62996 10.6938 6.375 9.3749C6.44207 9.32242 6.44207 9.32242 6.5105 9.26888C6.84188 9.0134 7.18504 8.78794 7.54687 8.57802C7.59975 8.54714 7.65262 8.51627 7.70709 8.48445C8.45728 8.05894 9.28327 7.77383 10.125 7.59365C10.1599 7.58597 10.1948 7.5783 10.2308 7.57039C11.4419 7.31746 12.8159 7.36261 14.0156 7.64052ZM6.27539 10.8573C5.99447 11.1506 5.76255 11.4797 5.53125 11.8124C5.48856 11.8719 5.48856 11.8719 5.44501 11.9325C5.35093 12.0701 5.29552 12.1556 5.30273 12.3251C5.33569 12.4196 5.33569 12.4196 5.39062 12.4686C5.50207 12.4919 5.50207 12.4919 5.625 12.4686C5.72435 12.3702 5.72435 12.3702 5.80664 12.2372C5.83897 12.1899 5.87129 12.1427 5.9046 12.094C5.93608 12.0475 5.96756 12.001 6 11.953C6.38061 11.4359 6.78715 11.0012 7.31543 10.6347C7.41731 10.5529 7.41731 10.5529 7.42969 10.4237C7.41622 10.2953 7.41622 10.2953 7.26562 10.2186C6.92198 10.2186 6.51681 10.6264 6.27539 10.8573Z" fill="#64748B"/>
<path d="M1.35099 18.0175C1.40703 18.017 1.40703 18.017 1.4642 18.0164C1.59017 18.0156 1.71608 18.0164 1.84205 18.0172C1.93296 18.0169 2.02386 18.0166 2.11476 18.0161C2.36517 18.0151 2.61556 18.0156 2.86598 18.0163C3.13579 18.0169 3.4056 18.016 3.67542 18.0154C4.20423 18.0144 4.73303 18.0146 5.26184 18.0153C5.69148 18.0158 6.12111 18.0159 6.55075 18.0156C6.64235 18.0156 6.64235 18.0156 6.73579 18.0155C6.85983 18.0154 6.98387 18.0153 7.10791 18.0153C8.23879 18.0146 9.36967 18.0153 10.5005 18.0165C11.5334 18.0176 12.5662 18.0175 13.599 18.0164C14.7588 18.0152 15.9187 18.0147 17.0785 18.0154C17.2021 18.0155 17.3257 18.0155 17.4493 18.0156C17.5101 18.0156 17.5709 18.0157 17.6335 18.0157C18.0628 18.0159 18.4921 18.0156 18.9214 18.015C19.4444 18.0144 19.9673 18.0145 20.4902 18.0158C20.7572 18.0164 21.0241 18.0166 21.2911 18.0159C21.5353 18.0152 21.7794 18.0156 22.0235 18.0168C22.1121 18.0171 22.2007 18.0169 22.2893 18.0164C22.4092 18.0157 22.5291 18.0164 22.649 18.0175C22.7012 18.0167 22.7012 18.0167 22.7545 18.0158C22.9296 18.019 23.0022 18.0344 23.1319 18.156C23.2757 18.4091 23.1726 18.714 23.1094 18.9845C22.9503 19.4528 22.6463 19.8144 22.207 20.0392C21.9321 20.1674 21.7289 20.2091 21.4247 20.2095C21.3754 20.2097 21.3754 20.2097 21.325 20.2098C21.2143 20.2102 21.1035 20.2101 20.9927 20.2101C20.9127 20.2103 20.8327 20.2104 20.7527 20.2106C20.5324 20.2111 20.3121 20.2113 20.0919 20.2114C19.8544 20.2116 19.617 20.212 19.3796 20.2124C18.806 20.2134 18.2324 20.2138 17.6587 20.2143C17.3886 20.2145 17.1185 20.2147 16.8484 20.215C15.9505 20.2158 15.0525 20.2164 14.1546 20.2168C13.9216 20.2169 13.6885 20.217 13.4555 20.2171C13.3686 20.2171 13.3686 20.2171 13.28 20.2171C12.3417 20.2175 11.4035 20.2187 10.4653 20.2202C9.50211 20.2218 8.53891 20.2226 7.57571 20.2228C7.03489 20.2229 6.49407 20.2233 5.95326 20.2245C5.49264 20.2255 5.03203 20.2259 4.57141 20.2254C4.33647 20.2252 4.10154 20.2253 3.8666 20.2262C3.65129 20.227 3.43599 20.227 3.22068 20.2263C3.14301 20.2261 3.06534 20.2263 2.98768 20.2269C2.38447 20.231 1.81345 20.1738 1.35938 19.7345C0.991916 19.3481 0.844647 18.9217 0.782227 18.3989C0.824213 18.062 1.05578 18.0128 1.35099 18.0175Z" fill="#64748B"/>
<path d="M2.81262 7.45302C2.98496 7.6761 3.07799 7.9178 3.16995 8.18059C3.26908 8.4461 3.39447 8.61004 3.6485 8.73933C3.6946 8.75668 3.74071 8.77402 3.78821 8.79189C3.86162 8.82107 3.86162 8.82107 3.93652 8.85085C3.98329 8.86909 4.03006 8.88734 4.07825 8.90614C4.21674 8.9606 4.32553 9.01412 4.45325 9.09364C4.51184 9.23427 4.51184 9.23427 4.50012 9.37489C4.35032 9.57206 4.16667 9.62799 3.94055 9.70302C3.66056 9.79644 3.41875 9.87761 3.26068 10.1458C3.24334 10.1872 3.226 10.2287 3.20813 10.2714C3.17922 10.3389 3.17922 10.3389 3.14972 10.4078C3.08127 10.5781 3.01531 10.7493 2.95288 10.922C2.90637 11.0155 2.90637 11.0155 2.76575 11.1093C2.62805 11.1151 2.62805 11.1151 2.4845 11.0624C2.40467 10.9352 2.35206 10.8258 2.297 10.6874C2.26336 10.6033 2.22968 10.5193 2.19528 10.4356C2.16057 10.3506 2.12704 10.2652 2.09357 10.1798C1.91266 9.83419 1.57976 9.75793 1.23434 9.63536C1.19764 9.62186 1.16093 9.60835 1.12311 9.59444C1.07306 9.57671 1.07306 9.57671 1.022 9.55863C0.937622 9.51552 0.937622 9.51552 0.843872 9.37489C0.838013 9.2372 0.838013 9.2372 0.890747 9.09364C1.06459 8.98457 1.23634 8.91714 1.42834 8.84535C1.84152 8.69522 1.84152 8.69522 2.10913 8.36983C2.12472 8.33025 2.14031 8.29067 2.15637 8.24989C2.16744 8.22217 2.17852 8.19444 2.18993 8.16587C2.26558 7.9767 2.26558 7.9767 2.33728 7.78601C2.42897 7.53988 2.53362 7.39858 2.81262 7.45302Z" fill="#64748B"/>
<path d="M17.5286 3.79102C17.6721 3.84375 17.6721 3.84375 17.7688 3.99609C17.8231 4.11992 17.8692 4.24529 17.9149 4.37256C17.9344 4.42622 17.9538 4.47987 17.9739 4.53516C17.9912 4.58615 18.0086 4.63715 18.0264 4.6897C18.1951 5.03535 18.5667 5.11931 18.9056 5.24176C19.1973 5.3557 19.1973 5.3557 19.3049 5.52869C19.3127 5.67188 19.3127 5.67188 19.2538 5.7962C19.0746 5.94965 18.8841 6.00061 18.6624 6.07324C18.2556 6.21938 18.2556 6.21938 18.0002 6.55664C17.9659 6.65129 17.9345 6.74706 17.9065 6.84375C17.8741 6.93099 17.841 7.01793 17.8069 7.10449C17.7942 7.14129 17.7815 7.17809 17.7684 7.216C17.7061 7.33759 17.6523 7.38927 17.5315 7.45312C17.4099 7.45111 17.4099 7.45111 17.2971 7.40625C17.2312 7.31891 17.2312 7.31891 17.1799 7.2041C17.1606 7.16211 17.1413 7.12011 17.1213 7.07684C17.0811 6.98104 17.0421 6.88468 17.0042 6.7879C16.9848 6.73866 16.9655 6.68941 16.9456 6.63867C16.9286 6.59287 16.9117 6.54707 16.8943 6.49988C16.7212 6.17195 16.3741 6.0953 16.047 5.97922C16.0103 5.96571 15.9736 5.95221 15.9357 5.93829C15.8857 5.92057 15.8857 5.92057 15.8346 5.90248C15.7502 5.85938 15.7502 5.85938 15.6565 5.71875C15.6418 5.60156 15.6418 5.60156 15.6565 5.48438C15.7532 5.36576 15.8441 5.31625 15.9872 5.26648C16.0237 5.25319 16.0603 5.23989 16.098 5.2262C16.1743 5.19925 16.2507 5.17252 16.3272 5.146C16.5968 5.04738 16.7908 4.94945 16.9258 4.68059C16.9765 4.56379 17.0232 4.44613 17.0686 4.32715C17.0996 4.24673 17.1309 4.16646 17.1627 4.08636C17.1829 4.03337 17.1829 4.03337 17.2036 3.97931C17.2818 3.83061 17.3655 3.79796 17.5286 3.79102Z" fill="#64748B"/>
<path d="M12.4801 5.4279C12.6548 5.54786 12.7637 5.71321 12.8438 5.90635C12.8544 6.03091 12.8544 6.03091 12.8529 6.17076C12.8527 6.21597 12.8525 6.26118 12.8522 6.30777C12.8514 6.36479 12.8505 6.42182 12.8496 6.48057C12.8477 6.66233 12.8458 6.84409 12.8438 7.03135C12.2869 7.03135 11.73 7.03135 11.1563 7.03135C11.1524 6.8612 11.1485 6.69104 11.1446 6.51573C11.1428 6.46286 11.1411 6.40998 11.1394 6.35551C11.1361 6.05513 11.1676 5.8271 11.3438 5.57823C11.6798 5.25081 12.075 5.20307 12.4801 5.4279Z" fill="#64748B"/>
<path d="M6.57862 5.57617C6.77262 5.65217 6.83061 5.80105 6.92561 5.97937C6.94428 6.01179 6.96295 6.04421 6.98219 6.07761C7.10686 6.30434 7.15428 6.49184 7.1717 6.74988C7.0926 6.82312 7.0926 6.82312 6.9842 6.8905C6.86921 6.88464 6.86921 6.88464 6.74982 6.84363C6.672 6.74969 6.672 6.74969 6.60627 6.62976C6.58289 6.5874 6.5595 6.54505 6.53541 6.5014C6.51335 6.45965 6.4913 6.4179 6.46857 6.37488C6.44894 6.34038 6.4293 6.30587 6.40906 6.27032C6.30695 6.08378 6.24061 5.9361 6.28107 5.71863C6.37824 5.60706 6.43062 5.57863 6.57862 5.57617Z" fill="#64748B"/>
<path d="M21.2932 9.14358C21.4221 9.18752 21.4221 9.18752 21.5158 9.32815C21.509 9.48092 21.4833 9.54665 21.3803 9.66085C21.3438 9.69125 21.3073 9.72164 21.2697 9.75295C21.2315 9.78498 21.1934 9.817 21.154 9.85C21.1187 9.87888 21.0834 9.90777 21.0471 9.93752C21.0045 9.97523 20.962 10.0129 20.9182 10.0518C20.7988 10.1347 20.7239 10.1682 20.5783 10.1719C20.4699 10.1221 20.4699 10.1221 20.3908 10.0313C20.3723 9.89852 20.3723 9.89852 20.3908 9.75002C20.5256 9.58544 20.6932 9.46004 20.8596 9.32815C20.8872 9.30495 20.9149 9.28174 20.9434 9.25784C21.0675 9.16233 21.1352 9.14054 21.2932 9.14358Z" fill="#64748B"/>
</svg>
