<svg width="16" height="16" viewBox="0 0 16 16" fill="none" xmlns="http://www.w3.org/2000/svg">
<g clip-path="url(#clip0_192_1323)">
<path d="M0 0C5.28 0 10.56 0 16 0C16 5.28 16 10.56 16 16C10.72 16 5.44 16 0 16C0 10.72 0 5.44 0 0Z" fill="#F9FE00"/>
<path d="M4.20001 2.53333C4.92043 2.52424 5.64081 2.51692 6.36127 2.5126C6.69592 2.51053 7.03052 2.50772 7.36515 2.50315C7.68892 2.49876 8.01265 2.49641 8.33645 2.49538C8.45912 2.49465 8.5818 2.49322 8.70446 2.49104C9.82437 2.47193 10.8205 2.68266 11.6737 3.46145C12.3422 4.1488 12.5528 4.9439 12.5545 5.87031C12.5473 6.31235 12.4703 6.67069 12.2667 7.06666C12.2369 7.12475 12.207 7.18285 12.1763 7.2427C11.6501 8.185 10.8814 8.58324 9.87657 8.87447C9.80731 8.8939 9.73804 8.91332 9.66668 8.93333C10.1133 9.5691 10.5631 10.2024 11.0188 10.8317C11.2621 11.1678 11.5041 11.5049 11.7447 11.8429C11.9066 12.0702 12.0698 12.2964 12.2339 12.5221C12.2738 12.5772 12.3138 12.6322 12.355 12.6889C12.434 12.7977 12.5132 12.9064 12.5925 13.015C12.646 13.0886 12.646 13.0886 12.7005 13.1638C12.7486 13.2298 12.7486 13.2298 12.7977 13.2971L12.8667 13.4C10.5333 13.4 10.2 13.4 10.2 13.4C10 13.1 9.60001 12.4 9.60001 12.4L9.40001 12.0667L9.19585 11.7292C9.19585 11.7292 9.08934 11.5799 9.03647 11.5049C8.87726 11.2811 8.7168 11.0582 8.55568 10.8357C8.48229 10.7339 8.40941 10.6317 8.33706 10.5292C8.15242 10.269 7.96358 10.0211 7.7521 9.78203C7.1297 9.05347 7.03655 8.4811 7.09637 7.5289C7.12298 7.21036 7.12298 7.21036 7.20001 7.13333C7.36656 7.12594 7.53157 7.12255 7.69819 7.12161C7.80188 7.12006 7.90557 7.11845 8.00926 7.11679C8.1728 7.11446 8.33631 7.1125 8.49987 7.1116C8.65768 7.11056 8.8154 7.10787 8.97319 7.10494C9.02127 7.10507 9.06934 7.1052 9.11888 7.10533C9.54004 7.09536 9.88656 6.95892 10.2039 6.6789C10.2343 6.64049 10.2646 6.60207 10.2958 6.56249C10.3432 6.50462 10.3432 6.50462 10.3914 6.44557C10.6193 6.10565 10.5803 5.65595 10.5333 5.26666C10.3586 4.83303 10.087 4.58679 9.66668 4.39999C9.41345 4.31521 9.15659 4.32177 8.8924 4.31964C8.81626 4.31865 8.81626 4.31865 8.73858 4.31764C8.57122 4.31554 8.40384 4.31388 8.23647 4.31223C8.12027 4.31086 8.00406 4.30946 7.88786 4.30804C7.5823 4.30436 7.27674 4.30106 6.97118 4.29785C6.65926 4.29449 6.34734 4.29078 6.03543 4.2871C5.42363 4.27994 4.81182 4.27321 4.20001 4.26666C4.20001 3.69466 4.20001 3.12266 4.20001 2.53333Z" fill="#020200"/>
<path d="M4.20001 5.26666C4.86001 5.26666 5.52001 5.26666 6.20001 5.26666C6.20001 7.95066 6.20001 10.6347 6.20001 13.4C5.54001 13.4 4.88001 13.4 4.20001 13.4C4.20001 10.716 4.20001 8.032 4.20001 5.26666Z" fill="black"/>
</g>
<defs>
<clipPath id="clip0_192_1323">
<rect width="16" height="16" rx="4" fill="white"/>
</clipPath>
</defs>
</svg>
