<svg width="16" height="16" viewBox="0 0 16 16" fill="none" xmlns="http://www.w3.org/2000/svg">
<path d="M0.0189303 3.04185C0.66985 2.49717 1.52493 2.16667 2.46145 2.16667H13.5384C14.4749 2.16667 15.33 2.49717 15.9809 3.04185C15.8296 1.89075 14.7937 1 13.5384 1H2.46145C1.20612 1 0.170259 1.89075 0.0189303 3.04185Z" fill="#666A87"/>
<path d="M0.0189303 5.37518C0.66985 4.83051 1.52493 4.5 2.46145 4.5H13.5384C14.4749 4.5 15.33 4.83051 15.9809 5.37518C15.8296 4.22409 14.7937 3.33333 13.5384 3.33333H2.46145C1.20612 3.33333 0.170259 4.22409 0.0189303 5.37518Z" fill="#666A87"/>
<path d="M2.46154 5.66667C1.10207 5.66667 0 6.71134 0 8V12.6667C0 13.9553 1.10207 15 2.46154 15H13.5385C14.8979 15 16 13.9553 16 12.6667V8C16 6.71134 14.8979 5.66667 13.5385 5.66667H10.4615C10.1217 5.66667 9.84615 5.92783 9.84615 6.25C9.84615 7.2165 9.0196 8 8 8C6.9804 8 6.15385 7.2165 6.15385 6.25C6.15385 5.92783 5.87833 5.66667 5.53846 5.66667H2.46154Z" fill="#666A87"/>
</svg>
