<svg width="40" height="40" viewBox="0 0 40 40" fill="none" xmlns="http://www.w3.org/2000/svg">
<rect width="40" height="40" rx="12.549" fill="#12407A"/>
<g filter="url(#filter0_d_95_659)">
<path d="M14.2077 14.7874L12.3477 16.0337C12.1304 16.1793 12 16.4237 12 16.6853V26.2842C12 26.9115 12.6998 27.285 13.2209 26.9358L15.0809 25.6895C15.2982 25.5438 15.4286 25.2995 15.4286 25.0379V15.439C15.4286 14.8117 14.7288 14.4382 14.2077 14.7874Z" fill="url(#paint0_linear_95_659)"/>
<path d="M26.7791 11.3412L24.9191 12.5876C24.7018 12.7332 24.5714 12.9775 24.5714 13.2391V24.5611C24.5714 25.1884 25.2712 25.5619 25.7923 25.2127L27.6523 23.9664C27.8696 23.8208 28 23.5764 28 23.3148V11.9928C28 11.3655 27.3002 10.9921 26.7791 11.3412Z" fill="url(#paint1_linear_95_659)"/>
<path d="M21.0842 17.5959L18.0814 19.4823C17.8529 19.6258 17.7143 19.8766 17.7143 20.1464V29.7811C17.7143 30.3979 18.3935 30.7734 18.9158 30.4452L21.9186 28.5589C22.1471 28.4154 22.2857 28.1645 22.2857 27.8947V18.26C22.2857 17.6432 21.6065 17.2678 21.0842 17.5959Z" fill="url(#paint2_linear_95_659)"/>
<path d="M21.0842 9.55486L18.0814 11.4412C17.8529 11.5847 17.7143 11.8356 17.7143 12.1054V15.4221C17.7143 16.039 18.3935 16.4144 18.9158 16.0863L21.9186 14.1999C22.1471 14.0564 22.2857 13.8055 22.2857 13.5358V10.219C22.2857 9.60215 21.6065 9.22673 21.0842 9.55486Z" fill="url(#paint3_linear_95_659)"/>
</g>
<defs>
<filter id="filter0_d_95_659" x="9.4026" y="6.83607" width="26.3896" height="31.5228" filterUnits="userSpaceOnUse" color-interpolation-filters="sRGB">
<feFlood flood-opacity="0" result="BackgroundImageFix"/>
<feColorMatrix in="SourceAlpha" type="matrix" values="0 0 0 0 0 0 0 0 0 0 0 0 0 0 0 0 0 0 127 0" result="hardAlpha"/>
<feOffset dx="2.5974" dy="2.5974"/>
<feGaussianBlur stdDeviation="2.5974"/>
<feComposite in2="hardAlpha" operator="out"/>
<feColorMatrix type="matrix" values="0 0 0 0 0.0226388 0 0 0 0 0.134005 0 0 0 0 0.271667 0 0 0 0.5 0"/>
<feBlend mode="normal" in2="BackgroundImageFix" result="effect1_dropShadow_95_659"/>
<feBlend mode="normal" in="SourceGraphic" in2="effect1_dropShadow_95_659" result="shape"/>
</filter>
<linearGradient id="paint0_linear_95_659" x1="20" y1="8.80005" x2="20" y2="31.2" gradientUnits="userSpaceOnUse">
<stop stop-color="#F1F6FE"/>
<stop offset="1" stop-color="#145CB5"/>
</linearGradient>
<linearGradient id="paint1_linear_95_659" x1="20" y1="8.80005" x2="20" y2="31.2" gradientUnits="userSpaceOnUse">
<stop stop-color="#F1F6FE"/>
<stop offset="1" stop-color="#145CB5"/>
</linearGradient>
<linearGradient id="paint2_linear_95_659" x1="20" y1="8.80005" x2="20" y2="31.2" gradientUnits="userSpaceOnUse">
<stop stop-color="#F1F6FE"/>
<stop offset="1" stop-color="#145CB5"/>
</linearGradient>
<linearGradient id="paint3_linear_95_659" x1="20" y1="8.80005" x2="20" y2="31.2" gradientUnits="userSpaceOnUse">
<stop stop-color="#F1F6FE"/>
<stop offset="1" stop-color="#145CB5"/>
</linearGradient>
</defs>
</svg>
