<svg width="24" height="24" viewBox="0 0 24 24" fill="none" xmlns="http://www.w3.org/2000/svg">
<path fill-rule="evenodd" clip-rule="evenodd" d="M12.0001 2.99995C10.4287 2.99995 8.96836 3.46369 7.74515 4.26153C7.32883 4.53308 6.7712 4.41571 6.49965 3.99939C6.2281 3.58306 6.34547 3.02543 6.76179 2.75388C8.26859 1.77108 10.069 1.19995 12.0001 1.19995C17.3021 1.19995 21.6001 5.49802 21.6001 10.8C21.6001 13.8876 21.0815 16.856 20.1258 19.6216C19.9635 20.0914 19.4511 20.3407 18.9813 20.1783C18.5115 20.016 18.2622 19.5036 18.4245 19.0338C19.3157 16.4547 19.8001 13.6848 19.8001 10.8C19.8001 6.49213 16.308 2.99995 12.0001 2.99995ZM5.19957 5.29947C5.61589 5.57102 5.73326 6.12865 5.46171 6.54497C4.66387 7.76818 4.20013 9.22854 4.20013 10.8C4.20013 12.7293 3.63002 14.5283 2.6488 16.0343C2.37746 16.4508 1.81989 16.5684 1.40343 16.2971C0.986966 16.0257 0.869325 15.4681 1.14067 15.0517C1.93721 13.8291 2.40013 12.37 2.40013 10.8C2.40013 8.86885 2.97126 7.06841 3.95406 5.56161C4.22561 5.14529 4.78324 5.02792 5.19957 5.29947ZM12.0001 7.34394C10.0119 7.34394 8.40013 8.95572 8.40013 10.9439C8.40013 10.9605 8.39968 10.9769 8.3988 10.9932C8.35336 14.3002 7.14369 17.328 5.16211 19.6821C4.84201 20.0624 4.27425 20.1111 3.89399 19.791C3.51372 19.471 3.46494 18.9032 3.78504 18.5229C5.54225 16.4354 6.60013 13.7424 6.60013 10.8C6.60013 10.7666 6.60195 10.7336 6.60549 10.7012C6.73247 7.83149 9.09915 5.54395 12.0001 5.54395C14.901 5.54395 17.2676 7.83131 17.3948 10.701C17.3984 10.7341 17.4002 10.7678 17.4001 10.8019L17.3999 10.8978L17.4001 10.9395C17.4002 10.953 17.4 10.9664 17.3994 10.9797C17.3985 11.099 17.3967 11.2181 17.3939 11.3369C17.3824 11.8339 16.9703 12.2274 16.4734 12.2159C15.9764 12.2044 15.5829 11.7922 15.5944 11.2953C15.5974 11.1644 15.5993 11.0332 15.5999 10.9017C15.5774 8.93306 13.9743 7.34394 12.0001 7.34394ZM12.0001 9.89995C12.4972 9.89995 12.9001 10.3029 12.9001 10.8C12.9001 15.0123 11.4758 18.8946 9.08295 21.9878C8.77882 22.381 8.21356 22.4531 7.8204 22.149C7.42725 21.8449 7.35509 21.2796 7.65922 20.8865C9.81673 18.0974 11.1001 14.5998 11.1001 10.8C11.1001 10.3029 11.5031 9.89995 12.0001 9.89995ZM16.2347 14.3373C16.7217 14.4371 17.0355 14.9127 16.9358 15.3996C16.4211 17.9113 15.4936 20.2724 14.2276 22.4085C13.9742 22.8361 13.4221 22.9773 12.9945 22.7239C12.5669 22.4705 12.4257 21.9184 12.6791 21.4908C13.845 19.5236 14.6987 17.3501 15.1724 15.0383C15.2722 14.5514 15.7478 14.2375 16.2347 14.3373Z" fill="#526077"/>
</svg>
