<svg width="24" height="24" viewBox="0 0 24 24" fill="none" xmlns="http://www.w3.org/2000/svg">
<path d="M15.0893 1.96192C15.1453 1.96176 15.2013 1.9616 15.2589 1.96144C15.412 1.96107 15.565 1.96092 15.718 1.96089C15.8138 1.96085 15.9097 1.96075 16.0055 1.96063C16.3403 1.9602 16.6752 1.96001 17.0101 1.96004C17.3212 1.96007 17.6324 1.95958 17.9435 1.95884C18.2115 1.95822 18.4794 1.95797 18.7473 1.958C18.907 1.95801 19.0667 1.95788 19.2263 1.95738C19.4047 1.95692 19.583 1.95706 19.7614 1.95734C19.8136 1.95708 19.8659 1.95681 19.9197 1.95654C20.4986 1.95886 21.0886 2.05731 21.5156 2.48435C21.9401 2.9844 22.0602 3.53052 22.0548 4.17426C22.0551 4.26093 22.0551 4.26093 22.0555 4.34935C22.056 4.50587 22.0557 4.66234 22.0549 4.81886C22.0542 4.98378 22.0545 5.14869 22.0547 5.31361C22.0548 5.59028 22.0542 5.86693 22.0531 6.1436C22.0519 6.4622 22.0518 6.78078 22.0523 7.09938C22.0528 7.40765 22.0525 7.71592 22.0519 8.02419C22.0516 8.1546 22.0516 8.285 22.0518 8.41541C22.0521 8.59789 22.0512 8.78035 22.0502 8.96283C22.0505 9.04277 22.0505 9.04277 22.0508 9.12433C22.0452 9.73667 21.8948 10.1936 21.4726 10.6424C21.1472 10.9477 20.7683 11.1146 20.322 11.1159C20.244 11.1163 20.244 11.1163 20.1643 11.1167C20.1075 11.1168 20.0506 11.1169 19.992 11.1169C19.9319 11.1171 19.8718 11.1174 19.8099 11.1176C19.6451 11.1182 19.4804 11.1185 19.3156 11.1187C19.2126 11.1189 19.1095 11.1191 19.0064 11.1193C18.6834 11.1199 18.3604 11.1204 18.0375 11.1206C17.6655 11.1208 17.2935 11.1216 16.9215 11.1229C16.6335 11.124 16.3455 11.1244 16.0575 11.1245C15.8857 11.1245 15.7139 11.1248 15.5421 11.1257C15.3502 11.1266 15.1582 11.1264 14.9663 11.1261C14.91 11.1265 14.8536 11.1269 14.7956 11.1274C14.2145 11.1245 13.795 10.9866 13.3594 10.5937C12.9439 10.1298 12.8694 9.64482 12.8717 9.0389C12.8714 8.97885 12.871 8.9188 12.8707 8.85694C12.8699 8.69355 12.8699 8.53017 12.8702 8.36678C12.8703 8.2298 12.87 8.09282 12.8698 7.95584C12.8691 7.63242 12.8692 7.309 12.8697 6.98558C12.8702 6.65316 12.8696 6.32077 12.8683 5.98835C12.8673 5.70175 12.867 5.41516 12.8673 5.12856C12.8674 4.95791 12.8673 4.78727 12.8665 4.61662C12.8656 4.42615 12.8663 4.23572 12.8671 4.04525C12.8666 3.98954 12.8662 3.93384 12.8657 3.87644C12.8711 3.26279 13.0704 2.84692 13.4822 2.40232C13.9188 1.98351 14.5186 1.96169 15.0893 1.96192Z" fill="#64748B"/>
<path d="M3.67368 12.9774C3.7248 12.9771 3.77591 12.9767 3.82857 12.9764C3.88443 12.9763 3.94029 12.9761 3.99785 12.976C4.05687 12.9757 4.11588 12.9754 4.17669 12.9751C4.37232 12.9741 4.56796 12.9736 4.7636 12.9731C4.83114 12.9729 4.89869 12.9727 4.96624 12.9726C5.28385 12.9717 5.60146 12.971 5.91907 12.9706C6.28458 12.9701 6.65008 12.9689 7.01558 12.967C7.29875 12.9656 7.58192 12.9649 7.86509 12.9648C8.03389 12.9646 8.20267 12.9642 8.37146 12.963C8.56027 12.9617 8.74904 12.9619 8.93785 12.9623C8.99295 12.9617 9.04806 12.9611 9.10483 12.9604C9.69581 12.9641 10.1734 13.125 10.5937 13.5468C11.0072 14.0254 11.1379 14.5222 11.1336 15.1452C11.1339 15.2044 11.1342 15.2635 11.1346 15.3244C11.1354 15.4851 11.1351 15.6458 11.1345 15.8064C11.134 15.9756 11.1345 16.1447 11.1347 16.3138C11.1351 16.5976 11.1346 16.8815 11.1337 17.1653C11.1327 17.4923 11.1331 17.8192 11.1341 18.1462C11.1349 18.4282 11.1351 18.7102 11.1346 18.9922C11.1343 19.1601 11.1342 19.328 11.1349 19.4958C11.1355 19.6831 11.1346 19.8704 11.1336 20.0578C11.1339 20.1125 11.1343 20.1673 11.1347 20.2237C11.1289 20.7897 10.9612 21.2373 10.5627 21.6413C10.0987 22.0652 9.58607 22.1391 8.97725 22.1378C8.91951 22.138 8.86176 22.1383 8.80226 22.1385C8.64477 22.1391 8.48729 22.1392 8.32981 22.1391C8.19784 22.139 8.06588 22.1392 7.93391 22.1395C7.62227 22.14 7.31063 22.14 6.99898 22.1397C6.67866 22.1394 6.35835 22.14 6.03803 22.141C5.76198 22.1418 5.48593 22.1421 5.20988 22.142C5.04547 22.1419 4.88107 22.142 4.71665 22.1427C4.53303 22.1434 4.34942 22.1429 4.16579 22.1424C4.0853 22.1429 4.0853 22.1429 4.00318 22.1435C3.40122 22.1396 2.86802 21.993 2.43248 21.5575C2.12629 21.1886 1.96399 20.7582 1.96178 20.2793C1.96144 20.2294 1.9611 20.1795 1.96076 20.128C1.96063 20.0737 1.96051 20.0194 1.96038 19.9635C1.96007 19.9059 1.95976 19.8483 1.95944 19.789C1.95852 19.5984 1.95797 19.4078 1.9575 19.2172C1.95731 19.1513 1.95712 19.0855 1.95693 19.0196C1.95603 18.7098 1.95537 18.4 1.95497 18.0902C1.95452 17.734 1.95329 17.3779 1.95139 17.0217C1.94997 16.7455 1.94928 16.4693 1.94913 16.1932C1.94902 16.0286 1.9486 15.8641 1.94742 15.6996C1.94611 15.5155 1.94632 15.3315 1.94664 15.1474C1.94604 15.0939 1.94544 15.0403 1.94482 14.9852C1.94887 14.352 2.12392 13.8711 2.56358 13.4183C2.87232 13.1303 3.25367 12.9793 3.67368 12.9774Z" fill="#64748B"/>
<path d="M9.45214 3.04185C9.50688 3.0907 9.50688 3.0907 9.56273 3.14054C9.60116 3.17456 9.63959 3.20858 9.67919 3.24363C10.4907 4.00601 10.9847 5.1137 11.027 6.22623C11.0553 7.59706 10.6606 8.70407 9.70336 9.70304C9.67593 9.73289 9.64849 9.76274 9.62023 9.79349C8.90833 10.5455 7.78923 10.9918 6.76195 11.0251C5.39623 11.0454 4.20487 10.6081 3.21703 9.65616C2.36046 8.76506 1.93717 7.57818 1.96038 6.35093C2.01565 5.30069 2.35066 4.35639 3.04711 3.56241C3.07533 3.52749 3.10355 3.49256 3.13262 3.45658C3.87174 2.56715 4.9754 2.10905 6.10259 1.98093C7.32655 1.897 8.51048 2.24636 9.45214 3.04185Z" fill="#64748B"/>
<path d="M18.2812 13.1718C18.7218 13.488 18.9287 13.8166 19.0312 14.3436C19.0425 14.4758 19.0423 14.6066 19.0404 14.7391C19.0403 14.775 19.0401 14.8109 19.04 14.8479C19.0395 14.9611 19.0383 15.0742 19.0371 15.1874C19.0366 15.2647 19.0362 15.342 19.0358 15.4194C19.0348 15.6077 19.0332 15.796 19.0312 15.9843C19.106 15.9828 19.106 15.9828 19.1823 15.9813C19.3695 15.9779 19.5567 15.9757 19.7439 15.974C19.8245 15.973 19.9051 15.9718 19.9857 15.9701C20.5585 15.9588 21.091 15.9536 21.5361 16.371C21.8667 16.6911 22.0039 17.0485 22.0459 17.5018C22.0088 17.9327 21.857 18.2896 21.5625 18.6093C21.0197 19.0528 20.4673 19.0443 19.8018 19.037C19.7269 19.0365 19.652 19.0361 19.5772 19.0357C19.3952 19.0347 19.2132 19.0331 19.0312 19.0311C19.0324 19.102 19.0324 19.102 19.0335 19.1743C19.0361 19.3516 19.0376 19.529 19.039 19.7063C19.0397 19.7827 19.0406 19.8591 19.0419 19.9354C19.0519 20.5775 19.0203 21.1123 18.5625 21.6093C18.1966 21.9083 17.8462 22.0473 17.376 22.0311C16.9185 21.9747 16.5568 21.7523 16.2524 21.4139C15.9487 20.9133 15.9612 20.4323 15.9727 19.8661C15.9736 19.7849 15.9745 19.7037 15.9752 19.6225C15.9773 19.4253 15.9805 19.2282 15.9844 19.0311C15.9383 19.0316 15.8922 19.0321 15.8448 19.0326C15.6721 19.0343 15.4993 19.0354 15.3266 19.0363C15.2522 19.0368 15.1778 19.0374 15.1034 19.0382C14.4526 19.0452 13.9181 19.0207 13.4041 18.5725C13.0996 18.2556 12.9767 17.8901 12.9609 17.455C12.9708 17.1773 13.0275 16.9708 13.1719 16.7343C13.1918 16.7015 13.2116 16.6688 13.2321 16.635C13.4676 16.2874 13.791 16.0686 14.2031 15.9843C14.3439 15.9725 14.4836 15.9733 14.6248 15.9751C14.6834 15.9753 14.6834 15.9753 14.7432 15.9755C14.8669 15.976 14.9906 15.9772 15.1143 15.9784C15.1986 15.9789 15.2829 15.9793 15.3672 15.9797C15.5729 15.9807 15.7787 15.9823 15.9844 15.9843C15.9834 15.9311 15.9824 15.8779 15.9814 15.8231C15.978 15.6242 15.9758 15.4253 15.9741 15.2264C15.9731 15.1406 15.9719 15.0548 15.9702 14.969C15.9679 14.8451 15.9669 14.7212 15.9661 14.5972C15.9651 14.5594 15.9641 14.5216 15.9631 14.4827C15.963 14.0504 16.1574 13.6701 16.4531 13.3593C16.9856 12.921 17.6678 12.8377 18.2812 13.1718Z" fill="#64748B"/>
</svg>
