<svg width="24" height="24" viewBox="0 0 24 24" fill="none" xmlns="http://www.w3.org/2000/svg">
<path d="M11.728 2.30054C11.8526 2.406 11.9733 2.51506 12.0939 2.62508C12.1285 2.65529 12.1632 2.6855 12.1988 2.71663C13.1066 3.55342 13.4358 4.76487 13.5002 5.9532C13.5736 5.95173 13.5736 5.95173 13.6485 5.95023C13.8301 5.94684 14.0118 5.94468 14.1934 5.9429C14.272 5.94196 14.3506 5.94068 14.4292 5.93906C14.5422 5.93679 14.6552 5.93572 14.7682 5.93489C14.8033 5.93393 14.8385 5.93296 14.8747 5.93196C14.9742 5.93192 14.9742 5.93192 15.1408 5.9532C15.2761 6.09003 15.3015 6.20101 15.3143 6.38966C15.3199 6.46535 15.3199 6.46535 15.3257 6.54257C15.3308 6.62527 15.3308 6.62527 15.3361 6.70964C15.3402 6.76789 15.3444 6.82614 15.3486 6.88616C15.3598 7.04586 15.3705 7.20557 15.3809 7.36532C15.3919 7.53285 15.4036 7.70034 15.4152 7.86783C15.4346 8.1494 15.4536 8.43099 15.4723 8.7126C15.4961 9.07296 15.5207 9.43326 15.5456 9.79355C15.567 10.1043 15.5881 10.4151 15.6092 10.7259C15.6159 10.8252 15.6227 10.9246 15.6295 11.0239C15.6421 11.21 15.6545 11.3961 15.6668 11.5823C15.6705 11.6368 15.6742 11.6914 15.6781 11.7476C15.6979 12.0511 15.7081 12.3522 15.7033 12.6563C15.6772 12.6564 15.6511 12.6566 15.6241 12.6567C14.9884 12.6594 14.3526 12.663 13.7169 12.6674C13.4094 12.6695 13.102 12.6713 12.7946 12.6726C12.4979 12.6738 12.2013 12.6757 11.9046 12.678C11.7914 12.6788 11.6782 12.6794 11.5649 12.6797C11.4065 12.6801 11.248 12.6814 11.0895 12.6829C11.0426 12.6829 10.9957 12.6828 10.9473 12.6827C10.6303 12.6868 10.6303 12.6868 10.3595 12.8438C10.2901 12.9827 10.3061 13.1076 10.3054 13.2627C10.3052 13.2965 10.305 13.3304 10.3048 13.3652C10.3042 13.4793 10.3039 13.5933 10.3036 13.7073C10.3032 13.7888 10.3029 13.8704 10.3025 13.9519C10.3012 14.2204 10.3005 14.4889 10.2998 14.7575C10.2996 14.85 10.2993 14.9425 10.2991 15.0351C10.2981 15.4203 10.2972 15.8056 10.2967 16.1909C10.2959 16.7421 10.2944 17.2934 10.2917 17.8447C10.2899 18.2326 10.2889 18.6206 10.2887 19.0085C10.2885 19.24 10.288 19.4714 10.2864 19.7028C10.285 19.9211 10.2847 20.1393 10.2853 20.3576C10.2853 20.4372 10.2849 20.5168 10.2841 20.5964C10.2772 21.295 10.3983 21.8587 10.807 22.4451C10.8752 22.547 10.8752 22.547 10.922 22.6876C9.9278 22.6898 8.93358 22.6914 7.93934 22.6924C7.47768 22.6929 7.01602 22.6936 6.55435 22.6947C6.15184 22.6956 5.74934 22.6962 5.34683 22.6964C5.13381 22.6965 4.9208 22.6968 4.70779 22.6975C4.50703 22.6981 4.30627 22.6983 4.10551 22.6982C4.03209 22.6982 3.95866 22.6984 3.88524 22.6988C3.18168 22.702 2.54166 22.6405 1.99821 22.1427C1.63389 21.7449 1.43903 21.2214 1.45122 20.683C1.45527 20.6042 1.45998 20.5255 1.46524 20.4468C1.46772 20.4027 1.4702 20.3587 1.47275 20.3133C1.4812 20.1672 1.49061 20.0211 1.50016 19.8751C1.50663 19.7716 1.5131 19.668 1.51956 19.5645C1.5399 19.2448 1.56158 18.9252 1.58348 18.6056C1.59485 18.4394 1.60608 18.2733 1.61733 18.1071C1.64434 17.7085 1.67157 17.31 1.69882 16.9114C1.71169 16.7231 1.72453 16.5348 1.73738 16.3464C1.78012 15.7199 1.8229 15.0935 1.86586 14.467C1.86859 14.4271 1.87132 14.3872 1.87414 14.3462C1.87825 14.2862 1.87825 14.2862 1.88244 14.2251C1.88799 14.1441 1.89354 14.0632 1.89909 13.9823C1.90184 13.9421 1.90459 13.902 1.90743 13.8606C1.9522 13.2075 1.99662 12.5543 2.04091 11.9011C2.08649 11.2289 2.13236 10.5566 2.17853 9.88434C2.20439 9.50754 2.23014 9.13073 2.25556 8.7539C2.27715 8.4338 2.29901 8.11371 2.32122 7.79365C2.33253 7.63043 2.34372 7.46721 2.35457 7.30396C2.3664 7.12713 2.37869 6.95034 2.39111 6.77355C2.39445 6.72186 2.39779 6.67017 2.40124 6.61692C2.40466 6.56957 2.40809 6.52222 2.41161 6.47344C2.4144 6.43265 2.41719 6.39187 2.42006 6.34984C2.44167 6.20815 2.47405 6.05744 2.57828 5.9532C2.69645 5.94906 2.81333 5.9478 2.93149 5.94863C2.98446 5.94873 2.98446 5.94873 3.03849 5.94883C3.15169 5.94909 3.26489 5.94968 3.37809 5.95027C3.45466 5.95051 3.53123 5.95072 3.60779 5.95092C3.79588 5.95143 3.98395 5.95224 4.17203 5.9532C4.17142 5.91654 4.17081 5.87988 4.17018 5.8421C4.15876 4.66254 4.64321 3.58067 5.43766 2.71883C5.5558 2.59895 5.67961 2.49372 5.81266 2.3907C5.88426 2.33496 5.88426 2.33496 5.95731 2.27809C7.64172 1.00356 10.0678 0.943023 11.728 2.30054ZM6.18766 3.37508C6.18766 3.40602 6.18766 3.43695 6.18766 3.46883C6.15672 3.46883 6.12578 3.46883 6.09391 3.46883C5.45266 4.1819 5.15641 5.0028 5.15641 5.9532C7.585 5.9532 10.0136 5.9532 12.5158 5.9532C12.4483 5.00846 12.2167 4.23086 11.5783 3.5157C11.547 3.48005 11.5158 3.4444 11.4836 3.40767C10.8563 2.735 9.95713 2.33442 9.04063 2.28359C8.03204 2.25135 6.86984 2.58374 6.18766 3.37508Z" fill="#64748B"/>
<path d="M11.4864 13.5292C11.5251 13.5289 11.5638 13.5285 11.6037 13.5281C11.6463 13.5284 11.6888 13.5288 11.7326 13.5291C11.7778 13.5289 11.823 13.5286 11.8696 13.5284C12.0217 13.5279 12.1738 13.5283 12.3259 13.5287C12.4347 13.5286 12.5435 13.5283 12.6523 13.528C12.9482 13.5274 13.2442 13.5276 13.5402 13.528C13.8494 13.5284 14.1586 13.5281 14.4679 13.5279C15.0205 13.5276 15.5732 13.528 16.1259 13.5287C16.6272 13.5294 17.1286 13.5293 17.6299 13.5286C18.2118 13.5279 18.7936 13.5276 19.3755 13.528C19.6836 13.5282 19.9918 13.5282 20.2999 13.5278C20.5895 13.5274 20.8792 13.5276 21.1688 13.5285C21.2753 13.5286 21.3818 13.5286 21.4884 13.5283C21.6333 13.5279 21.7783 13.5284 21.9233 13.5291C21.9658 13.5288 22.0083 13.5285 22.0522 13.5281C22.1103 13.5287 22.1103 13.5287 22.1695 13.5292C22.2197 13.5293 22.2197 13.5293 22.271 13.5293C22.3869 13.5525 22.4274 13.5956 22.4998 13.6876C22.5502 13.8386 22.5527 13.9473 22.553 14.1062C22.5533 14.1933 22.5533 14.1933 22.5536 14.2822C22.5536 14.3466 22.5535 14.4111 22.5535 14.4756C22.5536 14.5435 22.5538 14.6113 22.554 14.6792C22.5544 14.8637 22.5545 15.0482 22.5545 15.2327C22.5546 15.3482 22.5547 15.4637 22.5548 15.5791C22.5552 15.9825 22.5554 16.386 22.5554 16.7894C22.5554 17.1643 22.5558 17.5393 22.5566 17.9143C22.5572 18.2368 22.5575 18.5594 22.5574 18.8819C22.5574 19.0743 22.5575 19.2666 22.558 19.459C22.5585 19.6403 22.5585 19.8217 22.5582 20.0031C22.5581 20.0692 22.5582 20.1353 22.5585 20.2014C22.5613 20.8896 22.5117 21.4635 22.116 22.0401C21.6444 22.5117 21.1339 22.6922 20.4744 22.6945C20.4415 22.6946 20.4085 22.6948 20.3745 22.695C20.2647 22.6955 20.1548 22.6957 20.0449 22.6959C19.9659 22.6962 19.8869 22.6965 19.8078 22.6968C19.5488 22.6978 19.2897 22.6983 19.0307 22.6987C18.9413 22.6989 18.8519 22.6991 18.7625 22.6993C18.3424 22.7002 17.9223 22.7009 17.5021 22.7013C17.0182 22.7017 16.5343 22.703 16.0503 22.7048C15.6756 22.7063 15.3009 22.707 14.9261 22.7071C14.7026 22.7072 14.4791 22.7076 14.2556 22.7088C14.0452 22.7099 13.8347 22.7101 13.6243 22.7096C13.5474 22.7096 13.4705 22.7099 13.3937 22.7105C12.7756 22.7155 12.2423 22.6455 11.7654 22.2188C11.7239 22.1821 11.6823 22.1453 11.6395 22.1075C11.1991 21.6076 11.1351 21.0977 11.1379 20.4534C11.1377 20.3797 11.1374 20.306 11.1371 20.2323C11.1365 20.0331 11.1367 19.8341 11.1372 19.635C11.1375 19.4263 11.1372 19.2177 11.137 19.009C11.1367 18.6591 11.1371 18.3091 11.1377 17.9591C11.1385 17.5544 11.1383 17.1496 11.1375 16.7448C11.1368 16.397 11.1368 16.0492 11.1371 15.7014C11.1373 15.4938 11.1374 15.2861 11.1369 15.0785C11.1365 14.8836 11.1368 14.6887 11.1376 14.4938C11.1378 14.4222 11.1377 14.3506 11.1374 14.279C11.137 14.1814 11.1375 14.0839 11.1382 13.9864C11.1383 13.9317 11.1383 13.8771 11.1384 13.8208C11.1675 13.6013 11.2706 13.5294 11.4864 13.5292ZM14.6717 15.3751C14.6562 15.3905 14.6408 15.406 14.6248 15.4219C14.5707 16.1519 14.7366 16.6701 15.1522 17.2589C15.5904 17.707 16.179 17.9988 16.8104 18.0118C17.3764 18.0033 17.9649 17.7892 18.3748 17.3907C18.846 16.8568 19.0564 16.3182 19.0465 15.6082C19.0251 15.4145 18.9762 15.328 18.8436 15.1876C18.7114 15.1215 18.6153 15.1292 18.4686 15.1407C18.2903 15.2217 18.21 15.2872 18.1404 15.4688C18.1302 15.5551 18.1201 15.6415 18.1132 15.7282C18.079 16.1498 17.9948 16.4815 17.668 16.7751C17.3318 17.0208 16.9836 17.0998 16.5725 17.0435C16.2217 16.9619 15.9576 16.8066 15.7582 16.5043C15.5891 16.2046 15.5453 15.946 15.5345 15.6016C15.5125 15.4486 15.464 15.3595 15.3748 15.2344C15.0943 15.0313 14.8779 15.1335 14.6717 15.3751Z" fill="#64748B"/>
</svg>
