<svg width="24" height="24" viewBox="0 0 24 24" fill="none" xmlns="http://www.w3.org/2000/svg">
<path d="M4.37064 1.58127C4.42618 1.58095 4.42618 1.58095 4.48284 1.58062C4.60592 1.58003 4.729 1.58011 4.85209 1.58018C4.94075 1.5799 5.02941 1.57958 5.11807 1.57923C5.35826 1.5784 5.59846 1.57818 5.83866 1.57812C5.98895 1.57805 6.13925 1.57785 6.28954 1.57761C6.81453 1.57674 7.33951 1.57636 7.86449 1.57643C8.35278 1.57649 8.84105 1.5755 9.32933 1.57402C9.7494 1.57279 10.1695 1.57229 10.5896 1.57235C10.8401 1.57237 11.0906 1.57211 11.3411 1.57111C11.5769 1.5702 11.8127 1.5702 12.0485 1.57088C12.1346 1.57098 12.2208 1.57076 12.3069 1.57019C13.1535 1.56495 13.8865 1.72892 14.5166 2.32952C14.5524 2.36517 14.5882 2.40082 14.625 2.43755C14.655 2.46643 14.685 2.49532 14.7159 2.52508C15.3376 3.17179 15.4299 4.00893 15.4272 4.86435C15.4272 4.92293 15.4272 4.98152 15.4273 5.04188C15.4272 5.20126 15.427 5.36064 15.4267 5.52003C15.4264 5.68706 15.4263 5.8541 15.4263 6.02113C15.4261 6.33687 15.4258 6.65261 15.4253 6.96836C15.4248 7.32805 15.4245 7.68775 15.4243 8.04745C15.4238 8.78686 15.423 9.52627 15.4219 10.2657C15.3704 10.2914 15.3189 10.3171 15.2658 10.3436C15.1975 10.3777 15.1293 10.4118 15.061 10.4459C15.0271 10.4628 14.9932 10.4797 14.9583 10.4971C13.5516 11.1999 12.4868 12.2896 11.9649 13.7886C11.6163 14.8411 11.5373 15.9816 11.8125 17.0626C11.8203 17.0934 11.8281 17.1242 11.8362 17.1559C12.0998 18.1579 12.5996 18.9884 13.3125 19.7344C13.344 19.7694 13.3755 19.8044 13.4079 19.8404C13.8634 20.3283 14.4576 20.653 15.0469 20.9532C14.8557 21.4723 14.411 21.8768 13.923 22.1254C13.5186 22.3098 13.151 22.4132 12.7059 22.4135C12.6687 22.4137 12.6315 22.4139 12.5931 22.4141C12.4685 22.4148 12.3439 22.4151 12.2193 22.4153C12.1299 22.4157 12.0405 22.4161 11.9511 22.4165C11.6575 22.4177 11.3639 22.4185 11.0702 22.4191C10.9689 22.4194 10.8677 22.4196 10.7664 22.4199C10.3448 22.4209 9.92322 22.4218 9.50164 22.4223C8.89867 22.4231 8.29571 22.4246 7.69275 22.4273C7.26817 22.4291 6.8436 22.43 6.41902 22.4303C6.16578 22.4304 5.91256 22.431 5.65932 22.4325C5.4207 22.4339 5.18209 22.4342 4.94346 22.4337C4.85638 22.4337 4.76929 22.434 4.68221 22.4349C3.83291 22.4425 3.11054 22.27 2.47269 21.6651C1.8125 20.9617 1.62565 20.2035 1.62844 19.2608C1.6283 19.1952 1.62812 19.1296 1.6279 19.0641C1.62742 18.8852 1.62752 18.7064 1.62772 18.5276C1.62783 18.3342 1.62741 18.1408 1.62706 17.9474C1.62646 17.5691 1.62638 17.1907 1.62649 16.8124C1.62657 16.5047 1.62649 16.1971 1.62629 15.8894C1.62626 15.8455 1.62623 15.8017 1.6262 15.7565C1.62615 15.6674 1.62609 15.5783 1.62603 15.4892C1.62552 14.6543 1.62563 13.8195 1.62591 12.9847C1.62615 12.2217 1.62563 11.4587 1.62473 10.6958C1.62383 9.91144 1.62344 9.12711 1.62362 8.34277C1.6237 7.90279 1.62359 7.46282 1.62293 7.02285C1.62237 6.64831 1.6223 6.27378 1.62287 5.89924C1.62314 5.70834 1.6232 5.51745 1.62263 5.32655C1.62212 5.15143 1.62227 4.97634 1.62293 4.80122C1.62311 4.70864 1.62261 4.61605 1.62207 4.52346C1.62709 3.68744 1.86601 2.96907 2.45639 2.36266C2.98508 1.87373 3.64566 1.57816 4.37064 1.58127ZM9.93753 5.08892C9.83085 5.24122 9.83085 5.24122 9.84378 5.40441C9.90432 5.62881 10.0092 5.73483 10.1719 5.89458C10.2282 5.95233 10.2843 6.01019 10.3404 6.06817C10.3679 6.09642 10.3954 6.12466 10.4237 6.15377C10.5259 6.26172 10.6186 6.3758 10.711 6.49224C10.905 6.7351 11.1142 6.96131 11.3279 7.18685C11.3529 7.21335 11.3779 7.23984 11.4037 7.26714C11.426 7.29062 11.4484 7.31409 11.4714 7.33828C11.5313 7.4063 11.5313 7.4063 11.625 7.54693C11.5856 7.54731 11.5462 7.54768 11.5056 7.54808C11.1339 7.55173 10.7621 7.55582 10.3904 7.5604C10.1993 7.56274 10.0082 7.56492 9.81706 7.5667C9.63257 7.56843 9.44809 7.57061 9.2636 7.57309C9.19328 7.57395 9.12295 7.57466 9.05263 7.57521C8.95399 7.576 8.85537 7.57736 8.75674 7.57886C8.70064 7.57948 8.64453 7.58011 8.58673 7.58075C8.39478 7.59754 8.2579 7.6347 8.1182 7.76958C8.04326 7.91157 8.03986 7.99758 8.06253 8.1563C8.14691 8.28286 8.20709 8.3692 8.34378 8.43755C8.4491 8.44187 8.55454 8.44306 8.65994 8.44287C8.69241 8.44288 8.72489 8.44289 8.75835 8.44289C8.86589 8.44286 8.97343 8.4425 9.08097 8.44213C9.15545 8.44204 9.22993 8.44198 9.30442 8.44193C9.50062 8.44175 9.69682 8.44129 9.89301 8.44077C10.0932 8.44029 10.2933 8.44008 10.4934 8.43984C10.8863 8.43934 11.2791 8.43854 11.6719 8.43755C11.6498 8.46276 11.6277 8.48797 11.6049 8.51394C11.5611 8.56398 11.5611 8.56398 11.5164 8.61503C11.4875 8.64797 11.4587 8.68091 11.4289 8.71486C11.3321 8.82594 11.2365 8.93799 11.1411 9.05029C10.9345 9.29336 10.7252 9.53317 10.5088 9.76763C10.2907 10.0038 10.2907 10.0038 10.0752 10.2422C10.0505 10.2698 10.0258 10.2973 10.0003 10.3257C9.88068 10.4792 9.84216 10.5629 9.85257 10.7608C9.88039 10.9149 9.88039 10.9149 9.94339 11.0098C10.0892 11.0973 10.189 11.1123 10.3594 11.1094C10.6259 10.9688 10.8074 10.6867 10.9909 10.4565C11.1209 10.2986 11.2571 10.1485 11.3965 9.99908C11.4209 9.97293 11.4453 9.94679 11.4704 9.91985C11.5171 9.86968 11.5639 9.81951 11.6106 9.76935C11.744 9.62535 11.8718 9.47673 12 9.32818C12.0474 9.27396 12.0947 9.21976 12.1421 9.16558C12.2745 9.01401 12.4061 8.86172 12.5371 8.70898C12.6017 8.63405 12.6668 8.55966 12.7321 8.48534C12.766 8.4454 12.8 8.40546 12.835 8.36431C12.8643 8.33041 12.8936 8.29651 12.9238 8.26159C13.0052 8.12019 13.0075 8.03599 12.9844 7.87505C12.9119 7.74977 12.9119 7.74977 12.8057 7.63482C12.7672 7.59022 12.7287 7.54563 12.6891 7.49969C12.5406 7.33395 12.3901 7.16999 12.2386 7.00702C12.0612 6.81548 11.8971 6.61506 11.7334 6.41167C11.5952 6.24539 11.4489 6.08764 11.3015 5.92954C11.1552 5.77171 11.0182 5.60874 10.8838 5.44048C10.6215 5.10074 10.6215 5.10074 10.2393 4.93658C10.0688 4.95706 10.0688 4.95706 9.93753 5.08892ZM6.46878 9.32818C6.37037 9.43376 6.37037 9.43376 6.27835 9.55669C6.11517 9.7625 5.9455 9.95713 5.76566 10.1485C5.59459 10.3311 5.43017 10.5157 5.27347 10.711C5.07064 10.9636 4.85266 11.1995 4.63187 11.4363C4.21123 11.8412 4.21123 11.8412 4.05914 12.3718C4.09287 12.5438 4.21088 12.6487 4.33304 12.7647C4.38535 12.8176 4.43753 12.8707 4.4896 12.9238C4.52838 12.9628 4.52838 12.9628 4.56794 13.0027C4.66966 13.1083 4.76055 13.2211 4.8516 13.336C5.0083 13.5313 5.17274 13.7159 5.34378 13.8985C5.55227 14.1211 5.74767 14.3505 5.93888 14.5882C6.06371 14.7391 6.19323 14.8848 6.32523 15.0293C6.34741 15.0538 6.36959 15.0782 6.39244 15.1034C6.52377 15.246 6.59307 15.3197 6.78812 15.3458C6.98819 15.3222 7.04853 15.2489 7.17191 15.0938C7.22617 15.0057 7.22617 15.0057 7.21878 14.9063C7.12065 14.672 6.9884 14.514 6.81449 14.335C6.63696 14.1479 6.46594 13.9595 6.30472 13.7579C6.12113 13.5285 5.92512 13.3138 5.72217 13.1017C5.58955 12.9613 5.48697 12.8231 5.39066 12.6563C5.43253 12.6566 5.47439 12.6569 5.51753 12.6572C5.91204 12.6601 6.30656 12.6622 6.70108 12.6636C6.90391 12.6643 7.10673 12.6653 7.30956 12.6669C7.50529 12.6684 7.70102 12.6693 7.89676 12.6696C7.97144 12.6699 8.04612 12.6704 8.1208 12.6712C8.2254 12.6722 8.32996 12.6723 8.43456 12.6723C8.4941 12.6726 8.55364 12.6729 8.61498 12.6732C8.77559 12.6552 8.83983 12.6283 8.95316 12.5157C9.00302 12.3915 9.0117 12.2736 9.00003 12.1407C8.91732 12.0066 8.85961 11.9298 8.71878 11.8594C8.61347 11.8551 8.50803 11.8539 8.40263 11.8541C8.37016 11.8541 8.33768 11.8541 8.30422 11.8541C8.19668 11.8541 8.08914 11.8545 7.9816 11.8548C7.90712 11.8549 7.83264 11.855 7.75815 11.8551C7.56195 11.8552 7.36575 11.8557 7.16955 11.8562C6.96941 11.8567 6.76927 11.8569 6.56913 11.8571C6.1763 11.8576 5.78348 11.8584 5.39066 11.8594C5.45781 11.7769 5.52502 11.6944 5.59226 11.612C5.62968 11.566 5.6671 11.5201 5.70566 11.4728C5.82991 11.3228 5.95958 11.1801 6.09378 11.0391C6.30544 10.8134 6.50482 10.5812 6.69803 10.3393C6.82523 10.1843 6.96144 10.0387 7.10013 9.89397C7.18403 9.78054 7.20692 9.70251 7.21878 9.56255C7.16231 9.41096 7.12065 9.31145 6.98734 9.21685C6.76741 9.1502 6.64602 9.20044 6.46878 9.32818ZM6.79691 19.4063C6.7065 19.5255 6.70274 19.5837 6.70902 19.7344C6.75743 19.9004 6.80217 19.9564 6.93753 20.0626C7.08126 20.0909 7.08126 20.0909 7.2434 20.0868C7.27368 20.0871 7.30397 20.0875 7.33517 20.0878C7.435 20.0886 7.53478 20.0881 7.63462 20.0875C7.7042 20.0876 7.77379 20.0878 7.84337 20.088C7.98913 20.0883 8.13487 20.0879 8.28062 20.087C8.46716 20.0859 8.65364 20.0865 8.84017 20.0877C8.98385 20.0883 9.12753 20.0881 9.27121 20.0876C9.33997 20.0875 9.40873 20.0877 9.47748 20.0881C9.57376 20.0886 9.66996 20.0879 9.76623 20.0868C9.82094 20.0867 9.87564 20.0865 9.93201 20.0864C10.1081 20.0577 10.1867 19.9991 10.3125 19.8751C10.353 19.7464 10.3424 19.631 10.3125 19.5001C10.2249 19.3861 10.1587 19.3294 10.0313 19.2657C9.93728 19.2607 9.84311 19.2587 9.74897 19.2581C9.66002 19.2574 9.66002 19.2574 9.56928 19.2568C9.50422 19.2565 9.43917 19.2563 9.37412 19.2562C9.30755 19.2559 9.24099 19.2556 9.17442 19.2553C9.03473 19.2549 8.89504 19.2546 8.75535 19.2544C8.5766 19.2542 8.39787 19.253 8.21913 19.2517C8.08156 19.2508 7.94399 19.2506 7.80642 19.2505C7.74054 19.2504 7.67466 19.25 7.60879 19.2494C7.51646 19.2486 7.42413 19.2488 7.33179 19.249C7.2793 19.2488 7.22681 19.2486 7.17273 19.2485C7.01333 19.2679 6.92587 19.3124 6.79691 19.4063Z" fill="#64748B"/>
<path d="M20.4918 11.7983C20.5357 11.8339 20.5796 11.8696 20.6249 11.9063C20.6654 11.9391 20.706 11.9718 20.7478 12.0056C21.7297 12.842 22.2379 14.0645 22.3593 15.3282C22.4522 16.6579 22.0287 17.9039 21.1786 18.9194C20.5837 19.6001 19.878 20.0764 19.0311 20.3907C18.9995 20.4025 18.9678 20.4143 18.9352 20.4265C17.7322 20.8541 16.3377 20.7156 15.1907 20.1841C13.9603 19.5455 13.0386 18.4678 12.6003 17.1528C12.2045 15.7208 12.4294 14.317 13.1494 13.0333C13.3251 12.7365 13.5414 12.4812 13.7811 12.2344C13.8033 12.2116 13.8255 12.1888 13.8483 12.1653C15.6272 10.3708 18.5149 10.2552 20.4918 11.7983ZM17.0155 12.1407C16.9553 12.2611 16.9532 12.3641 16.9423 12.4981C16.9383 12.5451 16.9344 12.5921 16.9304 12.6406C16.9261 12.6948 16.9261 12.6948 16.9218 12.7501C16.8832 12.7621 16.8447 12.7741 16.8049 12.7865C16.2774 12.9674 15.8857 13.2508 15.6151 13.7473C15.4229 14.2133 15.4273 14.7089 15.6135 15.1747C15.8166 15.5646 16.1334 15.7707 16.5435 15.9094C16.8141 15.994 17.0888 16.062 17.3641 16.1293C17.3976 16.1375 17.4311 16.1457 17.4656 16.1541C17.5578 16.1764 17.6502 16.1978 17.7426 16.2192C17.9044 16.2652 18.0392 16.3279 18.1874 16.4063C18.2338 16.4218 18.2802 16.4373 18.328 16.4532C18.459 16.7289 18.4679 17.023 18.369 17.3087C18.165 17.6079 17.9244 17.7339 17.578 17.8126C17.3274 17.8399 17.1264 17.7842 16.8905 17.7073C16.7828 17.6705 16.7828 17.6705 16.6759 17.6489C16.6487 17.641 16.6216 17.6332 16.5936 17.6251C16.5615 17.563 16.5305 17.5004 16.4999 17.4376C16.3676 17.2624 16.2702 17.1672 16.0516 17.1212C15.8813 17.145 15.8813 17.145 15.7499 17.2764C15.6446 17.4294 15.6446 17.4294 15.6474 17.5958C15.7771 17.9918 16.0459 18.2278 16.4061 18.4219C16.6769 18.5563 16.6769 18.5563 16.9686 18.6094C16.967 18.6439 16.9654 18.6784 16.9637 18.714C16.9467 19.0623 16.9467 19.0623 17.1093 19.3594C17.2441 19.4691 17.2441 19.4691 17.411 19.4473C17.5976 19.4015 17.6512 19.3697 17.7655 19.2188C17.7881 19.0653 17.7881 19.0653 17.7772 18.9024C17.7747 18.8201 17.7747 18.8201 17.7721 18.7361C17.7699 18.6943 17.7678 18.6525 17.7655 18.6094C17.8255 18.5998 17.8854 18.5901 17.9472 18.5801C18.3567 18.4881 18.7286 18.2388 18.9843 17.9063C19.261 17.4413 19.3517 16.9866 19.2335 16.4477C19.0989 16.0444 18.9169 15.803 18.5419 15.6006C18.2162 15.4491 17.8794 15.3646 17.5311 15.2813C16.6508 15.0669 16.6508 15.0669 16.4091 14.8096C16.3168 14.5545 16.3129 14.2749 16.412 14.0215C16.6466 13.7557 16.863 13.6163 17.2169 13.5764C17.5915 13.5692 17.8835 13.5959 18.1874 13.8282C18.2548 13.9016 18.3203 13.9769 18.3837 14.0538C18.5234 14.2247 18.5234 14.2247 18.7352 14.2911C18.931 14.2394 19.0071 14.1799 19.1249 14.0157C19.1637 13.8603 19.1453 13.7744 19.0729 13.6326C18.7584 13.1287 18.3628 12.9301 17.8124 12.7501C17.8112 12.7082 17.81 12.6664 17.8087 12.6234C17.8061 12.5685 17.8034 12.5136 17.8007 12.4571C17.7985 12.4027 17.7963 12.3483 17.7941 12.2923C17.7609 12.116 17.7216 12.0581 17.578 11.9532C17.338 11.8894 17.1642 11.9385 17.0155 12.1407Z" fill="#64748B"/>
</svg>
