<svg width="24" height="24" viewBox="0 0 24 24" fill="none" xmlns="http://www.w3.org/2000/svg">
<path d="M8.53172 2.00612C8.61563 2.00588 8.69954 2.0056 8.78345 2.00528C9.00972 2.00455 9.23598 2.00451 9.46224 2.00465C9.65193 2.00471 9.84161 2.00444 10.0313 2.00418C10.4793 2.00358 10.9272 2.00355 11.3752 2.00388C11.8355 2.00421 12.2958 2.00354 12.7561 2.00238C13.1529 2.00141 13.5498 2.00109 13.9466 2.00127C14.1829 2.00136 14.4192 2.00123 14.6555 2.00046C14.8779 1.99977 15.1003 1.99989 15.3227 2.00059C15.4038 2.00072 15.4848 2.00058 15.5658 2.00012C16.7836 1.99378 17.8218 2.33377 18.7111 3.1845C19.6967 4.21436 19.8767 5.41042 19.8777 6.77085C19.8779 6.85816 19.8782 6.94547 19.8785 7.03278C19.8792 7.26863 19.8795 7.50448 19.8798 7.74034C19.88 7.88817 19.8802 8.036 19.8804 8.18383C19.8812 8.64775 19.8817 9.11166 19.8819 9.57558C19.8822 10.1085 19.8831 10.6414 19.8847 11.1744C19.8859 11.5881 19.8864 12.0017 19.8865 12.4154C19.8866 12.6617 19.8869 12.9079 19.8879 13.1542C19.8888 13.3863 19.8889 13.6183 19.8884 13.8504C19.8884 13.9347 19.8886 14.0191 19.8891 14.1035C19.8968 15.3692 19.6259 16.5032 18.7373 17.4518C18.4307 17.7618 18.1159 18.0155 17.7377 18.2335C17.921 18.4327 18.1256 18.5752 18.349 18.7248C18.4279 18.7782 18.5068 18.8318 18.5856 18.8853C18.6261 18.9129 18.6666 18.9404 18.7084 18.9687C18.9042 19.1026 19.098 19.2394 19.2917 19.3764C19.3301 19.4036 19.3686 19.4308 19.4083 19.4588C19.4864 19.5141 19.5645 19.5693 19.6426 19.6246C19.8362 19.7616 20.0301 19.8982 20.224 20.0349C20.3007 20.089 20.3774 20.143 20.4541 20.1971C20.6161 20.3113 20.778 20.4255 20.94 20.5396C21.0021 20.5833 21.0021 20.5833 21.0654 20.628C21.1439 20.6833 21.2223 20.7386 21.3008 20.7939C21.3723 20.8442 21.4433 20.8952 21.5138 20.9468C21.6158 21.0199 21.6158 21.0199 21.7293 21.072C21.8356 21.1285 21.8356 21.1285 22 21.2904C22 21.5245 22 21.7587 22 22C15.4 22 8.8 22 2 22C2 21.2904 2 21.2904 2.18251 21.0889C2.26467 21.0342 2.34856 20.982 2.43374 20.9321C2.52468 20.873 2.61562 20.8139 2.70654 20.7547C2.75294 20.7258 2.79935 20.6969 2.84715 20.6671C3.05437 20.536 3.25236 20.3927 3.4515 20.2498C3.52842 20.1955 3.60541 20.1414 3.68246 20.0873C3.73944 20.0473 3.73944 20.0473 3.79757 20.0065C3.87424 19.9526 3.9509 19.8988 4.02757 19.8449C4.47477 19.5307 4.92071 19.2149 5.36407 18.8954C5.40372 18.8668 5.44338 18.8382 5.48423 18.8088C5.74574 18.6199 6.00471 18.4277 6.2623 18.2335C6.22334 18.2097 6.18439 18.1859 6.14425 18.1614C5.13906 17.537 4.51027 16.6868 4.22357 15.5387C4.12428 15.0175 4.12301 14.502 4.12321 13.9736C4.12305 13.8855 4.12286 13.7974 4.12265 13.7093C4.12217 13.4711 4.12204 13.2329 4.12201 12.9947C4.12197 12.8455 4.12185 12.6963 4.12171 12.5471C4.1212 12.0256 4.12098 11.5041 4.12102 10.9825C4.12105 10.4981 4.12048 10.0137 4.11962 9.52925C4.1189 9.11196 4.11861 8.69467 4.11864 8.27738C4.11866 8.02877 4.1185 7.78016 4.11792 7.53156C4.11739 7.29745 4.11739 7.06334 4.11779 6.82923C4.11784 6.7439 4.11772 6.65857 4.11738 6.57325C4.11237 5.20099 4.39907 4.11444 5.38798 3.11286C6.268 2.2475 7.33353 2.00386 8.53172 2.00612ZM9.26776 3.55979C9.19617 3.76091 9.17585 3.94095 9.21311 4.15001C9.32702 4.36945 9.41692 4.50289 9.65027 4.58671C9.80242 4.59768 9.94912 4.60274 10.1013 4.60257C10.1693 4.60312 10.1693 4.60312 10.2387 4.60368C10.3885 4.60472 10.5383 4.60493 10.6881 4.60505C10.7924 4.6054 10.8966 4.60576 11.0009 4.60615C11.2195 4.6068 11.438 4.607 11.6566 4.60694C11.9364 4.60693 12.2161 4.60842 12.4959 4.6103C12.7113 4.61151 12.9266 4.61173 13.142 4.61168C13.2452 4.61181 13.3483 4.61229 13.4514 4.61313C13.5958 4.6142 13.7402 4.61389 13.8846 4.61323C13.927 4.61384 13.9694 4.61446 14.0131 4.61509C14.2974 4.61181 14.4582 4.5471 14.6776 4.36836C14.8189 4.18225 14.8068 3.99506 14.7869 3.7679C14.6956 3.5673 14.593 3.44538 14.4044 3.33121C14.1965 3.2597 13.9838 3.26816 13.7666 3.26782C13.7246 3.26755 13.6827 3.26728 13.6394 3.267C13.5008 3.2662 13.3622 3.26583 13.2235 3.26553C13.1269 3.26522 13.0302 3.2649 12.9336 3.26459C12.7309 3.26401 12.5282 3.26369 12.3256 3.2635C12.0666 3.26321 11.8077 3.26189 11.5487 3.26034C11.349 3.25932 11.1493 3.25904 10.9496 3.25896C10.8542 3.25879 10.7588 3.25835 10.6633 3.25764C10.5294 3.2567 10.3956 3.25681 10.2617 3.25716C10.2032 3.25641 10.2032 3.25641 10.1436 3.25564C9.82136 3.25828 9.4929 3.3138 9.26776 3.55979ZM6.20765 6.38808C5.98156 6.71088 5.87424 6.9962 5.87011 7.38944C5.86941 7.44777 5.86871 7.5061 5.86798 7.5662C5.86758 7.62903 5.86718 7.69186 5.86676 7.7566C5.86632 7.82164 5.86588 7.88667 5.86542 7.95368C5.86467 8.09142 5.86408 8.22917 5.86365 8.36692C5.86271 8.57646 5.86031 8.78595 5.8579 8.99547C5.85735 9.12952 5.85688 9.26357 5.85651 9.39762C5.85556 9.45979 5.8546 9.52196 5.85362 9.58602C5.8549 10.0641 5.95365 10.427 6.2179 10.8267C6.59514 11.1868 6.96553 11.3073 7.47799 11.309C7.51796 11.3092 7.55792 11.3094 7.5991 11.3096C7.73308 11.3102 7.86705 11.3104 8.00103 11.3106C8.09708 11.3109 8.19313 11.3113 8.28918 11.3117C8.6047 11.3128 8.92022 11.3134 9.23574 11.3139C9.34446 11.3142 9.45318 11.3144 9.56191 11.3146C10.0728 11.3156 10.5837 11.3164 11.0946 11.3169C11.6837 11.3174 12.2729 11.3188 12.8621 11.3211C13.3178 11.3227 13.7735 11.3235 14.2293 11.3237C14.5013 11.3238 14.7733 11.3243 15.0453 11.3257C15.3014 11.327 15.5575 11.3272 15.8137 11.3266C15.9074 11.3266 16.0011 11.3269 16.0948 11.3277C16.6669 11.332 17.1728 11.3119 17.6489 10.9563C18.0805 10.515 18.1371 10.0324 18.1367 9.44048C18.137 9.34479 18.137 9.34479 18.1374 9.24715C18.1377 9.1124 18.1377 8.97765 18.1375 8.84289C18.1373 8.63768 18.1386 8.43251 18.14 8.22731C18.1401 8.09606 18.1401 7.96482 18.1401 7.83358C18.1408 7.7422 18.1408 7.7422 18.1416 7.64899C18.1386 7.14402 18.0566 6.64855 17.6831 6.27891C17.2773 5.98306 16.9652 5.89028 16.4646 5.88913C16.4052 5.88889 16.4052 5.88889 16.3446 5.88864C16.2121 5.88817 16.0797 5.88809 15.9473 5.888C15.8522 5.88775 15.7571 5.88748 15.6621 5.88718C15.404 5.88647 15.1459 5.88611 14.8878 5.88587C14.7264 5.88571 14.5651 5.88549 14.4037 5.88524C13.8986 5.8845 13.3934 5.88397 12.8883 5.88376C12.3057 5.88351 11.7232 5.88256 11.1406 5.88098C10.6899 5.87979 10.2393 5.87924 9.7886 5.87917C9.5196 5.87911 9.25061 5.87879 8.98162 5.87782C8.72847 5.87692 8.47533 5.8768 8.22218 5.87728C8.12951 5.87732 8.03684 5.87709 7.94417 5.87654C7.29049 5.87295 6.69643 5.8945 6.20765 6.38808ZM7.08197 13.9757C6.91396 14.2303 6.8483 14.4915 6.86339 14.7945C6.94134 15.1364 7.08092 15.3954 7.36373 15.6067C7.69265 15.8065 8.0279 15.8059 8.39344 15.7225C8.69495 15.5634 8.97442 15.3354 9.10383 15.0128C9.14631 14.6674 9.1462 14.322 8.96444 14.0168C8.74029 13.7459 8.46478 13.5859 8.1168 13.5356C7.68994 13.5177 7.37883 13.6791 7.08197 13.9757ZM14.9577 14.1122C14.8528 14.4379 14.8297 14.8066 14.9359 15.1361C15.1051 15.4536 15.3696 15.6374 15.7028 15.7508C16.0223 15.8193 16.3229 15.7677 16.6072 15.6099C16.8912 15.41 17.0718 15.1402 17.1366 14.7979C17.1591 14.4619 17.0345 14.1841 16.86 13.904C16.6065 13.6724 16.3212 13.5625 15.9822 13.5151C15.5458 13.5815 15.2251 13.7559 14.9577 14.1122ZM7.68306 19.2706C7.61093 19.3427 7.5388 19.4148 7.46448 19.489C10.476 19.489 13.4874 19.489 16.5902 19.489C16.5 19.4169 16.4098 19.3449 16.3169 19.2706C16.2673 19.2212 16.2177 19.1717 16.1665 19.1208C15.544 18.5392 14.8397 18.5809 14.0288 18.5895C13.8375 18.5911 13.6462 18.5896 13.4549 18.5887C13.1339 18.5876 12.813 18.589 12.4921 18.5919C12.1231 18.5952 11.7544 18.5941 11.3855 18.5908C11.0664 18.5881 10.7474 18.5877 10.4283 18.5893C10.2387 18.5902 10.0493 18.5904 9.8597 18.5883C8.96527 18.5801 8.32536 18.607 7.68306 19.2706ZM5.22404 21.0174C5.22404 21.0354 5.22404 21.0535 5.22404 21.072C9.69617 21.072 14.1683 21.072 18.776 21.072C18.2052 20.5018 17.793 20.2394 16.977 20.232C16.8725 20.2328 16.768 20.2337 16.6636 20.2346C16.5515 20.2336 16.4395 20.2323 16.3275 20.2309C16.0252 20.2277 15.723 20.228 15.4207 20.2291C15.1673 20.2297 14.914 20.2286 14.6606 20.2276C14.0622 20.2251 13.4639 20.2255 12.8655 20.2276C12.2506 20.2298 11.6359 20.2274 11.021 20.2227C10.4909 20.2188 9.9609 20.2177 9.43083 20.2188C9.11519 20.2195 8.79964 20.2191 8.48401 20.2161C8.18678 20.2134 7.88976 20.2142 7.59255 20.2175C7.48434 20.2182 7.37611 20.2177 7.26791 20.2159C6.42584 20.2026 5.85218 20.4458 5.22404 21.0174Z" fill="#64748B"/>
</svg>
